<?xml version="1.0" encoding="utf-8"?>
<!-- Generator: Adobe Illustrator 17.0.1, SVG Export Plug-In . SVG Version: 6.00 Build 0)  -->
<!DOCTYPE svg PUBLIC "-//W3C//DTD SVG 1.1//EN" "http://www.w3.org/Graphics/SVG/1.1/DTD/svg11.dtd">
<svg version="1.1" id="Layer_1" xmlns="http://www.w3.org/2000/svg" xmlns:xlink="http://www.w3.org/1999/xlink" x="0px" y="0px"
	 width="100px" height="100px" viewBox="0 0 100 100" enable-background="new 0 0 100 100" xml:space="preserve">
<g>
	<path fill="#1D88BD" d="M50.614,88.485c-7.16,0-14.32,0.008-21.48-0.003c-4.182-0.006-7.797-1.414-10.681-4.493
		c-1.962-2.095-3.107-4.619-3.61-7.426c-0.762-4.251,0.066-8.261,1.81-12.163c2.789-6.24,6.287-12.048,10.445-17.459
		c1.481-1.927,3.095-3.746,4.768-5.52c2.401-2.545,5.01-4.821,7.862-6.836c0.523-0.369,1.049-0.528,1.692-0.527
		c6.05,0.019,12.1,0.025,18.149-0.005c0.821-0.004,1.485,0.208,2.15,0.67c2.393,1.66,4.615,3.537,6.641,5.608
		c3.717,3.8,7.009,7.953,9.895,12.431c2.719,4.217,5.095,8.611,6.999,13.249c0.788,1.919,1.169,3.948,1.349,6.035
		c0.265,3.088-0.243,6.013-1.636,8.746c-2.233,4.381-5.871,6.834-10.727,7.551c-0.832,0.123-1.653,0.138-2.481,0.138
		C64.712,88.487,57.663,88.485,50.614,88.485z M48.761,78.155c0,0.527,0.014,1.055-0.004,1.582c-0.016,0.462,0.18,0.653,0.642,0.642
		c0.777-0.017,1.555-0.031,2.331,0.005c0.599,0.028,0.771-0.23,0.755-0.79c-0.029-1.054,0.01-2.109-0.015-3.163
		c-0.013-0.542,0.093-0.84,0.728-0.944c0.953-0.155,1.856-0.519,2.721-0.973c4.107-2.157,5.491-7.011,3.45-10.865
		c-1.097-2.071-3.041-3.226-5.126-4.155c-1.79-0.797-3.658-1.413-5.34-2.458c-2.099-1.304-2.395-3.97-0.509-5.229
		c1.092-0.729,2.352-0.986,3.643-0.89c1.797,0.134,3.556,0.492,5.184,1.313c0.467,0.235,0.72,0.129,0.858-0.36
		c0.246-0.877,0.426-1.783,0.774-2.618c0.308-0.74,0.054-1.018-0.591-1.283c-1.551-0.637-3.175-0.955-4.825-1.095
		c-0.706-0.06-0.814-0.36-0.799-0.94c0.024-0.915-0.011-1.832,0.011-2.747c0.012-0.508-0.198-0.694-0.693-0.679
		c-0.721,0.023-1.444,0.029-2.164-0.002c-0.565-0.024-0.717,0.238-0.705,0.753c0.023,0.998-0.011,1.998,0.012,2.997
		c0.012,0.55-0.143,0.857-0.747,0.974c-0.95,0.184-1.849,0.543-2.719,0.985c-4.31,2.189-5.143,7.538-2.856,10.704
		c1.382,1.913,3.443,2.912,5.548,3.796c1.501,0.631,3.084,1.083,4.439,2.024c1.901,1.321,2.441,3.268,1.316,5.028
		c-0.883,1.382-2.334,1.801-3.872,1.883c-2.457,0.131-4.774-0.459-6.962-1.549c-0.581-0.289-0.901-0.435-1.047,0.425
		c-0.151,0.891-0.451,1.766-0.77,2.617c-0.233,0.619-0.018,0.917,0.509,1.177c1.452,0.717,2.988,1.177,4.582,1.372
		C48.754,75.967,48.759,75.923,48.761,78.155z"/>
	<path fill="#1D88BD" d="M50.805,28.521c-3.081,0-6.162-0.013-9.243,0.011c-0.588,0.005-0.96-0.168-1.3-0.668
		c-1.866-2.741-3.774-5.453-5.657-8.183c-0.615-0.891-1.12-1.849-1.467-2.874c-0.587-1.733-0.051-2.766,1.688-3.289
		c1.541-0.464,3.155-0.509,4.728-0.78c2.15-0.37,4.055,0.31,6.01,1.072c3.886,1.514,7.812,1.537,11.72-0.033
		c1.456-0.585,2.894-1.322,4.53-1.183c1.845,0.156,3.676,0.472,5.436,1.042c1.655,0.536,1.951,2.232,0.868,4.075
		c-1.628,2.769-3.554,5.336-5.34,7.997c-0.493,0.734-1.034,1.438-1.499,2.188c-0.301,0.486-0.676,0.64-1.231,0.636
		C56.967,28.51,53.886,28.521,50.805,28.521z"/>
</g>
</svg>
