<?xml version="1.0" encoding="utf-8"?>
<!-- Generator: Adobe Illustrator 17.0.1, SVG Export Plug-In . SVG Version: 6.00 Build 0)  -->
<!DOCTYPE svg PUBLIC "-//W3C//DTD SVG 1.1//EN" "http://www.w3.org/Graphics/SVG/1.1/DTD/svg11.dtd">
<svg version="1.1" id="Layer_1" xmlns="http://www.w3.org/2000/svg" xmlns:xlink="http://www.w3.org/1999/xlink" x="0px" y="0px"
	 width="100px" height="100px" viewBox="0 0 100 100" enable-background="new 0 0 100 100" xml:space="preserve">
<g>
	<path fill="#1D88BD" d="M34.271,50.082c0,3.13-0.009,6.259,0.01,9.389c0.003,0.451-0.098,0.608-0.576,0.594
		c-2.238-0.066-4.223-0.808-5.998-2.151c-2.188-1.655-3.567-3.852-4.085-6.518c-0.6-3.088,0.083-5.95,1.964-8.486
		c1.203-1.621,2.726-2.872,4.641-3.556c0.738-0.263,0.75-0.915,0.952-1.43c0.824-2.098,2.016-3.95,3.455-5.675
		c1.842-2.209,4.084-3.893,6.639-5.154c1.881-0.928,3.874-1.55,5.972-1.827c1.084-0.143,2.161-0.282,3.255-0.25
		c2.597,0.077,5.096,0.584,7.517,1.556c2.992,1.201,5.491,3.077,7.634,5.437c1.749,1.926,3.027,4.158,3.901,6.606
		c0.144,0.402,0.357,0.612,0.704,0.756c3.112,1.293,5.217,3.555,6.214,6.751c1.123,3.599,0.467,6.919-1.863,9.907
		c-1.545,1.981-3.561,3.185-5.978,3.781c-0.297,0.073-0.573,0.193-0.743,0.547c-1.238,2.572-2.805,4.917-4.749,7.025
		c-1.674,1.816-3.536,3.308-5.92,4.067c-0.597,0.19-1.202,0.383-1.833,0.364c-0.387-0.012-0.467,0.255-0.603,0.493
		c-0.808,1.406-2.377,2.066-3.86,1.62c-1.32-0.396-2.444-1.878-2.346-3.242c0.108-1.501,0.81-2.705,2.659-3.16
		c1.119-0.275,2.649,0.11,3.48,1.596c0.254,0.453,0.535,0.527,0.929,0.452c1.585-0.299,2.96-1.038,4.186-2.069
		c2.659-2.234,4.5-5.078,6.069-8.128c0.187-0.364,0.258-0.721,0.257-1.123c-0.007-5.532-0.058-11.065,0.027-16.596
		c0.025-1.647-0.569-3-1.306-4.355c-0.928-1.704-2.189-3.155-3.637-4.425c-2.184-1.915-4.721-3.154-7.567-3.779
		c-1.112-0.244-2.253-0.353-3.358-0.343c-2.363,0.022-4.687,0.429-6.866,1.441c-2.114,0.981-4.008,2.267-5.587,3.99
		c-1.524,1.664-2.653,3.572-3.458,5.677c-0.112,0.293-0.135,0.588-0.134,0.895C34.273,43.867,34.271,46.975,34.271,50.082z"/>
</g>
</svg>
