<?xml version="1.0" encoding="utf-8"?>
<!-- Generator: Adobe Illustrator 17.0.1, SVG Export Plug-In . SVG Version: 6.00 Build 0)  -->
<!DOCTYPE svg PUBLIC "-//W3C//DTD SVG 1.1//EN" "http://www.w3.org/Graphics/SVG/1.1/DTD/svg11.dtd">
<svg version="1.1" id="Layer_1" xmlns="http://www.w3.org/2000/svg" xmlns:xlink="http://www.w3.org/1999/xlink" x="0px" y="0px"
	 width="100px" height="100px" viewBox="0 0 100 100" enable-background="new 0 0 100 100" xml:space="preserve">
<g>
	<path fill="#1D88BD" d="M62.06,33.305c0.162,1.398-0.087,2.946-1.126,4.261c-1.025,1.297-2.116,2.543-3.179,3.811
		c-1.523,1.815-3.026,3.648-4.577,5.439c-1.117,1.289-2.303,2.518-3.449,3.782c-2.29,2.527-4.566,5.068-6.863,7.588
		c-1.383,1.518-2.757,3.047-4.21,4.496c-0.926,0.923-2.145,1.389-3.416,1.68c-2.322,0.531-4.605,1.177-6.536,2.65
		c-2.551,1.945-3.363,4.589-2.451,7.699c0.365,1.245,0.949,2.388,1.556,3.522c0.323,0.603,0.704,0.64,1.146,0.114
		c0.284-0.338,0.474-0.737,0.654-1.152c0.738-1.7,1.513-3.384,2.301-5.061c0.304-0.647,0.859-1.033,1.57-1.105
		c2.178-0.22,4.023,0.555,5.641,1.961c0.336,0.292,0.631,0.623,0.983,0.903c0.511,0.407,0.448,0.943,0.17,1.477
		c-0.696,1.339-1.389,2.679-2.082,4.019c-0.102,0.198-0.212,0.394-0.29,0.602c-0.181,0.481-0.466,0.99-0.087,1.474
		c0.428,0.546,1.066,0.518,1.645,0.355c1.835-0.516,3.448-1.44,4.864-2.727c1.262-1.146,2.165-2.489,2.558-4.166
		c0.301-1.281,0.301-2.538-0.168-3.778c-0.326-0.861-0.421-1.774-0.607-2.666c-0.044-0.213-0.024-0.419,0.161-0.613
		c2.811-2.954,5.292-6.193,7.95-9.28c2.737-3.179,5.364-6.454,8.076-9.656c1.325-1.565,2.738-3.055,4.105-4.584
		c0.658-0.736,1.296-1.491,1.957-2.225c0.675-0.749,1.63-0.755,2.522-0.879c1.874-0.262,3.797-0.108,5.626-0.783
		c3.603-1.331,5.757-3.865,6.478-7.623c0.064-0.336,0.054-0.697,0.015-1.039c-0.102-0.896-0.849-1.323-1.673-0.935
		c-1.329,0.627-2.397,1.647-3.601,2.463c-0.654,0.443-1.283,0.924-1.913,1.4c-0.409,0.309-0.836,0.373-1.325,0.222
		c-1.506-0.464-2.884-1.173-4.089-2.185c-0.677-0.569-1.084-1.352-1.341-2.185c-0.216-0.697,0.186-1.377,1.043-1.946
		c1.708-1.134,3.417-2.267,5.125-3.402c0.165-0.109,0.359-0.199,0.478-0.348c0.194-0.242,0.486-0.473,0.413-0.83
		c-0.081-0.391-0.451-0.324-0.73-0.366c-3.471-0.525-6.886-0.472-9.943,1.51c-1.847,1.197-2.86,3.021-3.231,5.207
		C62.056,31.294,62.08,32.18,62.06,33.305z"/>
	<path fill="#1D88BD" d="M42.61,18.764c-0.538-0.095-1.062,0.484-1.64,0.875c-0.899,0.609-1.745,1.296-2.619,1.942
		c-1.043,0.772-1.207,1.219-0.732,2.396c0.183,0.455,0.163,0.764-0.195,1.12c-1.106,1.099-2.252,2.02-3.943,2.079
		c-1.325,0.047-2.277,1.016-3.295,1.742c-1.629,1.161-3.222,2.372-4.83,3.562c-0.561,0.415-1.025,0.905-1.411,1.501
		c-0.567,0.874-1.41,1.516-2.082,2.312c-2.051,2.431-3.525,5.087-3.901,8.315c-0.244,2.09,0.208,4.025,0.978,5.912
		c0.4,0.98,0.918,1.914,1.423,2.848c0.274,0.508,0.697,0.889,1.253,1.109s0.836,0.12,0.801-0.547
		c-0.084-1.619,0.136-3.206,0.583-4.761c0.995-3.464,3.093-5.981,6.459-7.34c0.654-0.264,1.425-0.085,2.083,0.159
		c1.547,0.572,3.119,0.953,4.776,0.88c0.488-0.022,0.836,0.144,1.179,0.486c0.841,0.839,1.685,1.681,2.595,2.441
		c1.028,0.859,1.597,1.909,1.716,3.233c0.067,0.747,0.454,1.338,0.972,1.866c0.519,0.53,1.011,1.086,1.5,1.643
		c0.308,0.351,0.572,0.31,0.853-0.027c1.834-2.204,3.908-4.195,5.711-6.428c0.329-0.408,0.255-0.634-0.085-0.912
		c-0.962-0.785-2.033-1.297-3.297-1.359c-0.995-0.049-1.661-0.743-2.337-1.332c-1.194-1.04-2.186-2.3-3.448-3.273
		c-0.306-0.236-0.408-0.559-0.345-0.926c0.207-1.205,0.158-2.401,0.022-3.615c-0.213-1.906,0.307-2.813,1.838-3.539
		c0.585-0.277,1.145-0.36,1.777-0.099c1.004,0.414,1.942,0.339,2.834-0.401c0.93-0.771,1.951-1.432,2.917-2.161
		c0.961-0.726,1.167-1.703,0.565-2.78c-0.3-0.536-0.635-1.058-1.091-1.492c-1.401-1.331-2.666-2.803-4.177-4.02
		C45.1,19.434,44.116,18.841,42.61,18.764z"/>
	<path fill="#1D88BD" d="M73.233,81.878c0.865,0.078,1.563-0.287,2.198-0.701c1.924-1.253,3.84-2.518,5.496-4.138
		c1.291-1.263,1.136-2.92-0.276-3.836c-0.821-0.532-1.453-1.336-2.186-2.002c-2.418-2.195-4.773-4.459-7.165-6.683
		c-2.59-2.408-5.191-4.805-7.794-7.198c-0.891-0.819-1.814-1.604-2.705-2.423c-0.294-0.27-0.432-0.323-0.738,0.048
		c-1.933,2.342-3.898,4.658-5.874,6.964c-0.367,0.429-0.375,0.747,0.013,1.147c0.999,1.031,2.021,2.037,2.991,3.101
		c1.701,1.867,3.53,3.617,5.263,5.457c2.156,2.29,4.341,4.551,6.505,6.833c0.886,0.934,1.806,1.835,2.672,2.787
		C72.084,81.732,72.605,81.987,73.233,81.878z"/>
</g>
</svg>
