<?xml version="1.0" encoding="utf-8"?>
<!-- Generator: Adobe Illustrator 17.0.1, SVG Export Plug-In . SVG Version: 6.00 Build 0)  -->
<!DOCTYPE svg PUBLIC "-//W3C//DTD SVG 1.1//EN" "http://www.w3.org/Graphics/SVG/1.1/DTD/svg11.dtd">
<svg version="1.1" id="Layer_1" xmlns="http://www.w3.org/2000/svg" xmlns:xlink="http://www.w3.org/1999/xlink" x="0px" y="0px"
	 width="100px" height="100px" viewBox="0 0 100 100" enable-background="new 0 0 100 100" xml:space="preserve">
<g>
	<path fill="#1D88BD" d="M20.27,26.445c0.596-1.454,1.174-2.85,1.738-4.252c0.15-0.372,0.341-0.568,0.793-0.552
		c1.107,0.039,2.215,0.014,3.323,0.012c0.653-0.001,0.654-0.004,0.656-0.686c0.002-0.508,0.017-1.016-0.005-1.523
		c-0.015-0.34,0.121-0.457,0.443-0.424c0.137,0.014,0.277,0.002,0.415,0.002c9.394,0,18.788,0,28.182,0
		c0.138,0,0.278,0.013,0.415-0.002c0.347-0.037,0.501,0.082,0.48,0.458c-0.028,0.506-0.008,1.015-0.006,1.523
		c0.003,0.65,0.004,0.652,0.689,0.653c1.131,0.002,2.262-0.001,3.393,0.002c0.222,0,0.433-0.038,0.554,0.264
		c0.605,1.504,1.236,2.998,1.896,4.588c-0.536,0-1.01-0.004-1.485,0.001c-0.834,0.008-0.751-0.093-0.752,0.727
		c-0.003,2.885-0.001,5.77-0.001,8.655c0,2.077-0.006,4.155,0.003,6.232c0.004,1.001-0.141,0.859,0.894,0.86
		c5.77,0.005,11.54,0.001,17.311,0.004c0.866,0,0.762-0.096,0.768,0.781c0.006,0.9-0.007,1.8,0.005,2.7
		c0.004,0.292-0.086,0.436-0.393,0.401c-0.091-0.01-0.184-0.001-0.277-0.001c-1.135,0.007-1.135,0.007-1.135,1.108
		c0,9.879,0,19.757,0,29.636c0,0.162-0.001,0.323,0,0.485c0.006,0.618,0.006,0.619,0.65,0.623c0.346,0.002,0.693,0.016,1.038-0.004
		c0.309-0.018,0.397,0.114,0.393,0.405c-0.013,0.854-0.011,1.708-0.002,2.562c0.003,0.26-0.085,0.387-0.357,0.367
		c-0.161-0.012-0.323-0.001-0.485-0.001c-19.388,0-38.776,0.001-58.164-0.002c-0.961,0-0.826,0.123-0.836-0.85
		c-0.007-0.692,0.009-1.385-0.005-2.077c-0.006-0.293,0.087-0.418,0.394-0.404c0.415,0.019,0.831-0.011,1.246,0.009
		c0.316,0.015,0.484-0.076,0.444-0.421c-0.016-0.137-0.002-0.277-0.002-0.415c0-16.849,0-33.698,0-50.547c0-0.046,0-0.092,0-0.138
		c-0.007-0.768,0.068-0.689-0.717-0.695c-0.438-0.003-0.877-0.004-1.315-0.009C20.41,26.496,20.366,26.473,20.27,26.445z
		 M34.122,54.174c0-1.521-0.016-3.041,0.01-4.561c0.007-0.431-0.122-0.547-0.545-0.539c-1.313,0.026-2.626,0.021-3.939,0.002
		c-0.378-0.006-0.517,0.093-0.515,0.495c0.015,3.041,0.015,6.082,0,9.123c-0.002,0.393,0.121,0.509,0.508,0.503
		c1.29-0.021,2.581-0.028,3.87,0.003c0.472,0.011,0.634-0.107,0.623-0.603C34.101,57.123,34.122,55.649,34.122,54.174z
		 M44.233,54.134c0-1.497-0.01-2.995,0.007-4.492c0.004-0.385-0.046-0.581-0.513-0.57c-1.335,0.032-2.672,0.021-4.008,0.005
		c-0.354-0.004-0.475,0.1-0.474,0.466c0.012,3.064,0.013,6.128,0,9.192c-0.002,0.372,0.131,0.465,0.478,0.461
		c1.336-0.015,2.673-0.018,4.008,0.002c0.385,0.006,0.515-0.106,0.509-0.501C44.221,57.175,44.233,55.654,44.233,54.134z
		 M54.344,54.135c0-1.497-0.01-2.995,0.007-4.492c0.004-0.383-0.044-0.582-0.512-0.571c-1.335,0.032-2.672,0.021-4.008,0.005
		c-0.353-0.004-0.476,0.098-0.475,0.465c0.013,3.064,0.013,6.128,0,9.192c-0.002,0.371,0.129,0.466,0.477,0.462
		c1.313-0.016,2.627-0.024,3.939,0.004c0.446,0.009,0.591-0.112,0.582-0.572C54.326,57.13,54.344,55.632,54.344,54.135z
		 M29.141,69.188c0,1.544,0.009,3.087-0.006,4.631c-0.003,0.352,0.096,0.481,0.464,0.475c1.359-0.019,2.719-0.021,4.077,0.001
		c0.387,0.006,0.452-0.154,0.451-0.488c-0.009-3.041-0.011-6.082,0.002-9.123c0.002-0.383-0.102-0.518-0.5-0.511
		c-1.313,0.022-2.627,0.03-3.939-0.003c-0.481-0.012-0.564,0.17-0.558,0.595C29.154,66.238,29.141,67.713,29.141,69.188z
		 M44.233,69.306c0-1.544-0.012-3.087,0.008-4.631c0.005-0.393-0.121-0.509-0.508-0.503c-1.336,0.02-2.672,0.017-4.008,0.002
		c-0.345-0.004-0.482,0.085-0.48,0.459c0.013,3.064,0.013,6.128,0.001,9.192c-0.001,0.363,0.116,0.472,0.472,0.467
		c1.336-0.017,2.673-0.027,4.008,0.005c0.465,0.011,0.519-0.182,0.514-0.568C44.223,72.255,44.233,70.781,44.233,69.306z
		 M54.344,69.263c0-1.497-0.012-2.995,0.008-4.492c0.005-0.416-0.06-0.615-0.551-0.602c-1.312,0.035-2.626,0.025-3.939,0.004
		c-0.389-0.006-0.508,0.114-0.506,0.505c0.014,3.041,0.015,6.082-0.001,9.123c-0.002,0.405,0.141,0.499,0.517,0.493
		c1.313-0.019,2.627-0.024,3.939,0.002c0.425,0.009,0.55-0.113,0.543-0.541C54.328,72.258,54.344,70.76,54.344,69.263z
		 M34.122,38.966c0-1.474-0.01-2.949,0.007-4.423c0.005-0.387-0.05-0.579-0.514-0.568c-1.335,0.032-2.672,0.022-4.008,0.005
		c-0.356-0.004-0.474,0.103-0.472,0.467c0.012,3.018,0.013,6.036-0.001,9.054c-0.002,0.374,0.134,0.463,0.48,0.459
		c1.336-0.015,2.672-0.018,4.008,0.002c0.387,0.006,0.513-0.109,0.508-0.503C34.11,41.961,34.122,40.463,34.122,38.966z
		 M44.233,38.987c0-1.497-0.01-2.995,0.007-4.492c0.004-0.375-0.086-0.525-0.493-0.518c-1.336,0.023-2.672,0.023-4.008,0
		c-0.404-0.007-0.496,0.14-0.494,0.516c0.013,2.972,0.014,5.944-0.001,8.915c-0.002,0.406,0.082,0.565,0.528,0.555
		c1.312-0.03,2.626-0.03,3.939,0c0.444,0.01,0.537-0.144,0.53-0.553C44.22,41.936,44.233,40.462,44.233,38.987z M49.363,38.939
		c0,1.474,0.012,2.949-0.008,4.423c-0.005,0.414,0.056,0.617,0.55,0.603c1.312-0.036,2.626-0.025,3.939-0.004
		c0.387,0.006,0.509-0.11,0.508-0.503c-0.014-2.995-0.015-5.99,0-8.985c0.002-0.403-0.138-0.5-0.516-0.495
		c-1.313,0.019-2.627,0.024-3.939-0.002c-0.423-0.008-0.552,0.109-0.544,0.539C49.379,35.989,49.363,37.464,49.363,38.939z
		 M70.589,57.665c0.575,0,1.151-0.021,1.725,0.007c0.377,0.018,0.462-0.138,0.457-0.48c-0.016-1.081-0.015-2.162,0-3.243
		c0.004-0.322-0.091-0.444-0.427-0.44c-1.15,0.016-2.3,0.017-3.45,0c-0.343-0.005-0.426,0.129-0.422,0.445
		c0.014,1.104,0.012,2.208,0.001,3.312c-0.003,0.291,0.084,0.414,0.392,0.404C69.439,57.652,70.014,57.665,70.589,57.665z
		 M70.639,61.826c-0.575,0-1.15,0.014-1.725-0.005c-0.319-0.011-0.448,0.084-0.443,0.424c0.017,1.104,0.017,2.208,0,3.312
		c-0.005,0.34,0.124,0.428,0.443,0.424c1.15-0.014,2.3-0.012,3.45-0.001c0.288,0.003,0.411-0.079,0.407-0.389
		c-0.014-1.127-0.014-2.254,0-3.381c0.004-0.31-0.119-0.396-0.407-0.388C71.789,61.837,71.214,61.826,70.639,61.826z M70.661,70.137
		c-0.598,0-1.196,0.012-1.794-0.005c-0.303-0.009-0.398,0.106-0.395,0.401c0.012,1.127,0.013,2.254,0,3.381
		c-0.004,0.321,0.144,0.378,0.418,0.376c1.15-0.009,2.3-0.014,3.45,0.002c0.333,0.005,0.435-0.111,0.43-0.436
		c-0.015-1.104-0.018-2.208,0.001-3.312c0.006-0.358-0.15-0.421-0.455-0.412C71.766,70.148,71.213,70.137,70.661,70.137z
		 M62.311,57.665c0.575,0,1.151-0.016,1.725,0.006c0.34,0.013,0.429-0.123,0.425-0.442c-0.015-1.104-0.012-2.208-0.001-3.312
		c0.003-0.287-0.079-0.411-0.388-0.407c-1.127,0.014-2.254,0.014-3.381,0c-0.309-0.004-0.392,0.118-0.389,0.406
		c0.011,1.104,0.013,2.208-0.001,3.312c-0.004,0.318,0.083,0.457,0.424,0.442C61.252,57.648,61.782,57.665,62.311,57.665z
		 M64.454,63.938c0-0.575-0.013-1.15,0.005-1.725c0.01-0.307-0.113-0.395-0.404-0.392c-1.127,0.011-2.254,0.009-3.381,0.002
		c-0.254-0.002-0.375,0.073-0.373,0.35c0.009,1.15,0.009,2.3,0,3.45c-0.002,0.271,0.108,0.357,0.367,0.355
		c1.127-0.008,2.254-0.016,3.381,0.004c0.362,0.006,0.417-0.157,0.409-0.458C64.444,64.996,64.455,64.467,64.454,63.938z
		 M62.346,74.286c0.552,0,1.105-0.021,1.656,0.007c0.374,0.019,0.465-0.132,0.46-0.478c-0.017-1.081-0.015-2.162-0.001-3.243
		c0.004-0.319-0.085-0.447-0.425-0.442c-1.104,0.017-2.208,0.017-3.312,0c-0.34-0.005-0.428,0.124-0.424,0.443
		c0.015,1.081,0.016,2.162-0.001,3.243c-0.005,0.347,0.087,0.497,0.46,0.477C61.287,74.265,61.817,74.286,62.346,74.286z"/>
</g>
</svg>
