<?xml version="1.0" encoding="utf-8"?>
<!-- Generator: Adobe Illustrator 17.0.1, SVG Export Plug-In . SVG Version: 6.00 Build 0)  -->
<!DOCTYPE svg PUBLIC "-//W3C//DTD SVG 1.1//EN" "http://www.w3.org/Graphics/SVG/1.1/DTD/svg11.dtd">
<svg version="1.1" id="Layer_1" xmlns="http://www.w3.org/2000/svg" xmlns:xlink="http://www.w3.org/1999/xlink" x="0px" y="0px"
	 width="100px" height="100px" viewBox="0 0 100 100" enable-background="new 0 0 100 100" xml:space="preserve">
<path fill="#1D88BD" d="M49.742,78.01c-9.449,0-18.899-0.001-28.348,0.002c-0.629,0-1.231-0.031-1.704-0.538
	c-0.295-0.316-0.49-0.655-0.472-1.099c0.007-0.18,0-0.36,0-0.541c0-17.148,0-34.296,0-51.444c0-0.154-0.003-0.309,0.001-0.463
	c0.02-0.889,0.449-1.397,1.302-1.546c0.815-0.142,1.543,0.287,1.842,1.057c0.155,0.4,0.133,0.808,0.133,1.218
	c0.001,12.719,0.001,25.439,0.001,38.158c0,3.527,0,7.055,0,10.582c0,0.154-0.002,0.309,0.001,0.463
	c0.014,0.705,0.014,0.706,0.755,0.716c0.18,0.003,0.36,0,0.541,0c18.024,0,36.047,0.001,54.071-0.004
	c0.495,0,0.976,0.027,1.435,0.225c0.69,0.297,1.001,0.803,0.976,1.588c-0.021,0.671-0.426,1.228-1.045,1.48
	c-0.396,0.161-0.805,0.144-1.216,0.144C68.589,78.01,59.166,78.01,49.742,78.01z"/>
<path fill="#1D88BD" d="M70.916,65.954c0.305,0.063,0.403,0.255,0.377,0.506c-0.026,0.259-0.17,0.43-0.452,0.38
	c-0.235-0.041-0.319-0.226-0.313-0.449C70.535,66.123,70.678,65.98,70.916,65.954z"/>
<path fill="#1D88BD" d="M73.48,60.473c0.014-0.257,0.163-0.379,0.391-0.396c0.255-0.02,0.467,0.071,0.494,0.356
	c0.023,0.243-0.131,0.397-0.365,0.393C73.766,60.822,73.551,60.731,73.48,60.473z"/>
<path fill="#1D88BD" d="M54.694,33.663c-0.274,0.006-0.474-0.127-0.451-0.391c0.021-0.243,0.227-0.394,0.488-0.371
	c0.219,0.019,0.404,0.161,0.411,0.376C55.15,33.545,54.96,33.674,54.694,33.663z"/>
<path fill="#1D88BD" d="M72.45,60.445c-0.349,0.426-0.542,0.482-0.838,0.244c-0.175-0.14-0.187-0.292-0.022-0.445
	C71.86,59.995,72.079,60.048,72.45,60.445z"/>
<path fill="#1D88BD" d="M52.035,26.869c0.259,0.024,0.411,0.155,0.395,0.393c-0.016,0.232-0.097,0.48-0.379,0.495
	c-0.242,0.013-0.357-0.171-0.37-0.401C51.665,27.093,51.782,26.919,52.035,26.869z"/>
<path fill="#1D88BD" d="M68.501,60.39c-0.002,0.28-0.129,0.437-0.366,0.435c-0.234-0.002-0.478-0.082-0.515-0.357
	c-0.033-0.246,0.148-0.368,0.374-0.392C68.254,60.049,68.435,60.159,68.501,60.39z"/>
<path fill="#1D88BD" d="M62.63,60.39c-0.002,0.28-0.129,0.437-0.366,0.435c-0.234-0.002-0.478-0.082-0.515-0.357
	c-0.033-0.246,0.148-0.368,0.374-0.392C62.384,60.049,62.565,60.159,62.63,60.39z"/>
<path fill="#1D88BD" d="M45.022,60.459c-0.031,0.238-0.163,0.389-0.403,0.365c-0.231-0.022-0.478-0.101-0.484-0.389
	c-0.005-0.243,0.181-0.352,0.41-0.36C44.81,60.066,44.986,60.18,45.022,60.459z"/>
<path fill="#1D88BD" d="M41.151,60.406c-0.009,0.297-0.232,0.378-0.459,0.415c-0.235,0.038-0.4-0.088-0.423-0.33
	c-0.023-0.246,0.13-0.379,0.359-0.41C40.88,60.047,41.08,60.126,41.151,60.406z"/>
<path fill="#1D88BD" d="M24.851,33.279c0.431-0.441,0.553-0.474,0.817-0.23c0.138,0.127,0.245,0.274,0.102,0.46
	C25.585,33.75,25.284,33.682,24.851,33.279z"/>
<path fill="#1D88BD" d="M27.044,33.257c0.387-0.42,0.571-0.457,0.831-0.165c0.133,0.149,0.189,0.305,0.011,0.459
	C27.636,33.767,27.393,33.681,27.044,33.257z"/>
<path fill="#1D88BD" d="M31.801,32.882c0.264,0.054,0.482,0.161,0.472,0.428c-0.011,0.276-0.225,0.362-0.485,0.354
	c-0.237-0.008-0.406-0.125-0.41-0.354C31.373,33.04,31.6,32.951,31.801,32.882z"/>
<path fill="#1D88BD" d="M60.474,32.891c0.309,0.009,0.511,0.138,0.537,0.384c0.024,0.217-0.133,0.367-0.375,0.385
	c-0.25,0.019-0.472-0.035-0.518-0.315C60.07,33.054,60.326,32.99,60.474,32.891z"/>
<path fill="#1D88BD" d="M36.593,33.283c0.422-0.442,0.55-0.477,0.813-0.237c0.137,0.126,0.248,0.271,0.108,0.459
	C37.333,33.749,37.03,33.683,36.593,33.283z"/>
<path fill="#1D88BD" d="M26.126,46.487c0.218,0.05,0.47,0.097,0.496,0.377c0.023,0.243-0.158,0.365-0.386,0.382
	c-0.258,0.019-0.466-0.077-0.49-0.361C25.726,46.643,25.881,46.517,26.126,46.487z"/>
<path fill="#1D88BD" d="M26.917,60.069c0.297,0.016,0.494,0.122,0.484,0.409c-0.009,0.24-0.174,0.378-0.412,0.344
	c-0.227-0.032-0.476-0.104-0.464-0.404C26.534,60.167,26.735,60.096,26.917,60.069z"/>
<path fill="#1D88BD" d="M29.109,60.069c0.297,0.016,0.494,0.122,0.484,0.409c-0.009,0.24-0.174,0.378-0.412,0.344
	c-0.227-0.032-0.476-0.104-0.464-0.404C28.726,60.167,28.927,60.096,29.109,60.069z"/>
<path fill="#1D88BD" d="M30.93,60.069c0.297,0.016,0.494,0.122,0.484,0.409c-0.009,0.24-0.174,0.378-0.412,0.344
	c-0.227-0.032-0.476-0.104-0.464-0.404C30.547,60.167,30.748,60.096,30.93,60.069z"/>
<path fill="#1D88BD" d="M71.3,54.659c-0.011,0.253-0.114,0.452-0.4,0.447c-0.239-0.004-0.383-0.166-0.351-0.405
	c0.03-0.226,0.103-0.477,0.399-0.471C71.193,54.236,71.282,54.426,71.3,54.659z"/>
<path fill="#1D88BD" d="M48.859,33.662c-0.26,0.017-0.475-0.076-0.485-0.351c-0.01-0.265,0.203-0.41,0.447-0.41
	s0.451,0.145,0.448,0.41C49.266,33.538,49.097,33.662,48.859,33.662z"/>
<path fill="#1D88BD" d="M52.439,66.453c-0.019,0.25-0.145,0.407-0.384,0.396c-0.284-0.014-0.386-0.219-0.374-0.479
	c0.011-0.23,0.128-0.413,0.37-0.4C52.336,65.985,52.385,66.239,52.439,66.453z"/>
<path fill="#1D88BD" d="M52.449,70.3c-0.043,0.282-0.155,0.504-0.421,0.482c-0.212-0.018-0.348-0.226-0.333-0.446
	c0.015-0.229,0.091-0.493,0.37-0.497C52.357,69.834,52.367,70.129,52.449,70.3z"/>
<path fill="#1D88BD" d="M71.297,70.3c-0.043,0.282-0.155,0.504-0.421,0.482c-0.212-0.018-0.348-0.226-0.333-0.446
	c0.015-0.229,0.091-0.493,0.37-0.497C71.204,69.834,71.215,70.129,71.297,70.3z"/>
<path fill="#1D88BD" d="M39.457,33.3c-0.064,0.286-0.259,0.372-0.506,0.35c-0.222-0.019-0.4-0.142-0.377-0.38
	c0.027-0.274,0.26-0.368,0.495-0.34C39.264,32.955,39.453,33.057,39.457,33.3z"/>
<path fill="#1D88BD" d="M41.048,32.916c0.201,0.068,0.431,0.125,0.406,0.389c-0.027,0.292-0.252,0.371-0.507,0.342
	c-0.228-0.026-0.401-0.152-0.36-0.406C40.626,32.996,40.842,32.949,41.048,32.916z"/>
<path fill="#1D88BD" d="M42.477,33.276c0.388-0.425,0.545-0.467,0.795-0.237c0.196,0.18,0.184,0.401-0.003,0.521
	C42.913,33.789,42.656,33.608,42.477,33.276z"/>
<path fill="#1D88BD" d="M44.891,33.659c-0.266-0.026-0.448-0.125-0.447-0.362c0-0.289,0.239-0.376,0.469-0.367
	c0.199,0.008,0.413,0.109,0.406,0.357C45.312,33.571,45.094,33.645,44.891,33.659z"/>
<path fill="#1D88BD" d="M47.331,33.321c-0.057,0.264-0.25,0.35-0.498,0.33c-0.222-0.018-0.401-0.14-0.38-0.377
	c0.024-0.275,0.258-0.371,0.492-0.343C47.136,32.954,47.334,33.05,47.331,33.321z"/>
<path fill="#1D88BD" d="M51.199,33.224c-0.019,0.285-0.164,0.407-0.387,0.426c-0.246,0.021-0.462-0.054-0.497-0.335
	c-0.033-0.261,0.184-0.353,0.376-0.384C50.935,32.891,51.113,33.027,51.199,33.224z"/>
<path fill="#1D88BD" d="M52.318,33.325c-0.006-0.272,0.191-0.369,0.384-0.393c0.235-0.03,0.468,0.065,0.494,0.34
	c0.023,0.237-0.155,0.36-0.377,0.38C52.571,33.673,52.376,33.588,52.318,33.325z"/>
<path fill="#1D88BD" d="M57.065,33.312c-0.053,0.267-0.243,0.357-0.493,0.34c-0.224-0.016-0.404-0.135-0.388-0.371
	c0.018-0.276,0.251-0.374,0.486-0.35C56.865,32.95,57.059,33.047,57.065,33.312z"/>
<path fill="#1D88BD" d="M58.63,32.916c0.2,0.045,0.417,0.098,0.435,0.339c0.021,0.284-0.179,0.395-0.433,0.396
	c-0.255,0.001-0.454-0.112-0.435-0.395C58.213,33.015,58.429,32.962,58.63,32.916z"/>
<path fill="#1D88BD" d="M62.932,33.334c-0.07,0.27-0.273,0.348-0.527,0.31c-0.229-0.034-0.395-0.169-0.341-0.419
	c0.051-0.235,0.266-0.325,0.477-0.295C62.741,32.958,62.944,33.051,62.932,33.334z"/>
<path fill="#1D88BD" d="M51.975,36.619c0.32-0.006,0.392,0.202,0.441,0.388c0.068,0.257-0.042,0.454-0.319,0.487
	c-0.237,0.028-0.385-0.116-0.4-0.347C51.683,36.904,51.813,36.727,51.975,36.619z"/>
<path fill="#1D88BD" d="M52.436,39.036c-0.063,0.2-0.102,0.472-0.389,0.452c-0.269-0.019-0.345-0.277-0.349-0.504
	c-0.005-0.231,0.148-0.378,0.384-0.365C52.317,38.632,52.433,38.786,52.436,39.036z"/>
<path fill="#1D88BD" d="M51.975,40.416c0.32-0.006,0.392,0.202,0.441,0.388c0.068,0.257-0.042,0.454-0.319,0.487
	c-0.237,0.028-0.385-0.116-0.4-0.347C51.683,40.701,51.813,40.524,51.975,40.416z"/>
<path fill="#1D88BD" d="M52.436,42.833c-0.063,0.2-0.102,0.472-0.389,0.452c-0.269-0.019-0.345-0.277-0.349-0.504
	c-0.005-0.231,0.148-0.378,0.384-0.365C52.317,42.429,52.433,42.583,52.436,42.833z"/>
<path fill="#1D88BD" d="M52.065,30.738c0.269,0.063,0.352,0.276,0.366,0.505c0.014,0.233-0.133,0.385-0.367,0.384
	c-0.233,0-0.381-0.151-0.366-0.385C51.712,31.014,51.796,30.801,52.065,30.738z"/>
<path fill="#1D88BD" d="M41.829,46.49c0.248,0.012,0.401,0.131,0.406,0.366c0.005,0.235-0.145,0.385-0.376,0.374
	c-0.228-0.01-0.487-0.087-0.496-0.359C41.354,46.591,41.624,46.547,41.829,46.49z"/>
<path fill="#1D88BD" d="M43.77,46.491c0.201,0.062,0.473,0.102,0.455,0.388c-0.016,0.27-0.275,0.346-0.502,0.352
	c-0.229,0.006-0.379-0.145-0.367-0.383C43.367,46.613,43.521,46.497,43.77,46.491z"/>
<path fill="#1D88BD" d="M64.463,32.907c0.247,0.061,0.49,0.109,0.473,0.406c-0.014,0.239-0.198,0.335-0.42,0.338
	c-0.256,0.004-0.455-0.102-0.453-0.382C64.065,33.018,64.301,32.987,64.463,32.907z"/>
<path fill="#1D88BD" d="M66.223,32.907c0.247,0.061,0.49,0.109,0.473,0.406c-0.014,0.239-0.198,0.335-0.42,0.338
	c-0.256,0.004-0.455-0.102-0.453-0.382C65.825,33.018,66.061,32.987,66.223,32.907z"/>
<path fill="#1D88BD" d="M71.289,56.608c-0.047,0.212-0.088,0.476-0.36,0.492c-0.283,0.017-0.356-0.245-0.381-0.469
	c-0.026-0.234,0.114-0.388,0.348-0.4C71.132,56.218,71.257,56.367,71.289,56.608z"/>
<path fill="#1D88BD" d="M71.3,50.769c-0.011,0.253-0.114,0.452-0.4,0.447c-0.239-0.004-0.383-0.166-0.351-0.405
	c0.03-0.226,0.103-0.477,0.399-0.471C71.193,50.346,71.282,50.536,71.3,50.769z"/>
<path fill="#1D88BD" d="M71.289,52.718c-0.047,0.212-0.088,0.476-0.36,0.492c-0.283,0.017-0.356-0.245-0.381-0.469
	c-0.026-0.234,0.114-0.388,0.348-0.4C71.132,52.328,71.257,52.477,71.289,52.718z"/>
<path fill="#1D88BD" d="M47.024,60.468c-0.07,0.264-0.282,0.349-0.511,0.358c-0.232,0.009-0.382-0.14-0.376-0.375
	c0.006-0.234,0.159-0.377,0.392-0.358C46.756,60.112,46.97,60.193,47.024,60.468z"/>
<path fill="#1D88BD" d="M49.308,60.468c-0.07,0.264-0.282,0.349-0.511,0.358c-0.232,0.009-0.382-0.14-0.376-0.375
	c0.006-0.234,0.159-0.377,0.392-0.358C49.04,60.112,49.254,60.193,49.308,60.468z"/>
<path fill="#1D88BD" d="M59.726,60.383c0.587-0.39,0.587-0.39,0.984,0.088C60.233,60.981,60.229,60.981,59.726,60.383z"/>
<path fill="#1D88BD" d="M58.802,60.39c-0.002,0.28-0.129,0.437-0.366,0.435c-0.234-0.002-0.478-0.082-0.515-0.357
	c-0.033-0.246,0.148-0.368,0.374-0.392C58.556,60.049,58.737,60.159,58.802,60.39z"/>
<path fill="#1D88BD" d="M55.898,60.383c0.587-0.39,0.587-0.39,0.984,0.088C56.405,60.981,56.401,60.981,55.898,60.383z"/>
<path fill="#1D88BD" d="M64.126,60.082c0.212,0.047,0.476,0.088,0.492,0.36c0.017,0.283-0.245,0.356-0.469,0.381
	c-0.234,0.026-0.388-0.114-0.4-0.348C63.736,60.238,63.885,60.114,64.126,60.082z"/>
<path fill="#1D88BD" d="M65.64,60.385c0.501-0.396,0.501-0.396,0.938,0.054C66.139,60.995,66.051,60.99,65.64,60.385z"/>
<path fill="#1D88BD" d="M70.052,60.088c0.194,0.074,0.475,0.107,0.434,0.404c-0.036,0.26-0.286,0.338-0.517,0.332
	c-0.231-0.007-0.37-0.16-0.347-0.399C69.645,60.187,69.806,60.085,70.052,60.088z"/>
<path fill="#1D88BD" d="M52.073,24.869c0.264,0.07,0.349,0.282,0.358,0.511c0.009,0.232-0.14,0.382-0.375,0.376
	c-0.234-0.006-0.377-0.159-0.358-0.392C51.717,25.136,51.798,24.922,52.073,24.869z"/>
<path fill="#1D88BD" d="M70.913,62.093c0.232,0.029,0.382,0.158,0.366,0.392c-0.016,0.227-0.093,0.489-0.367,0.488
	c-0.273-0.001-0.351-0.261-0.366-0.489C70.53,62.25,70.68,62.121,70.913,62.093z"/>
<path fill="#1D88BD" d="M70.906,24.862c0.283,0.088,0.37,0.298,0.373,0.528c0.003,0.231-0.148,0.378-0.385,0.365
	c-0.234-0.013-0.368-0.166-0.348-0.401C70.566,25.12,70.673,24.931,70.906,24.862z"/>
<path fill="#1D88BD" d="M71.283,27.31c-0.074,0.194-0.107,0.475-0.404,0.434c-0.26-0.036-0.338-0.286-0.332-0.517
	c0.007-0.231,0.16-0.37,0.399-0.347C71.184,26.903,71.286,27.064,71.283,27.31z"/>
<path fill="#1D88BD" d="M70.906,28.811c0.283,0.088,0.37,0.298,0.373,0.528c0.003,0.231-0.148,0.378-0.385,0.365
	c-0.234-0.013-0.368-0.166-0.348-0.401C70.566,29.069,70.673,28.88,70.906,28.811z"/>
<path fill="#1D88BD" d="M52.067,67.964c0.232,0.03,0.381,0.16,0.363,0.394c-0.017,0.227-0.094,0.489-0.369,0.486
	c-0.272-0.003-0.35-0.264-0.364-0.491C51.683,68.119,51.834,67.99,52.067,67.964z"/>
<path fill="#1D88BD" d="M52.439,62.577c-0.019,0.25-0.145,0.407-0.384,0.396c-0.284-0.014-0.386-0.219-0.374-0.479
	c0.011-0.23,0.128-0.413,0.37-0.4C52.336,62.109,52.385,62.363,52.439,62.577z"/>
<path fill="#1D88BD" d="M52.067,64.088c0.232,0.03,0.381,0.16,0.363,0.394c-0.017,0.227-0.094,0.489-0.369,0.486
	c-0.272-0.003-0.35-0.264-0.364-0.491C51.683,64.243,51.834,64.114,52.067,64.088z"/>
<path fill="#1D88BD" d="M71.285,68.386c-0.062,0.201-0.102,0.473-0.388,0.455c-0.27-0.016-0.346-0.275-0.352-0.502
	c-0.006-0.229,0.145-0.379,0.383-0.367C71.163,67.983,71.279,68.136,71.285,68.386z"/>
<path fill="#1D88BD" d="M29.177,33.239c0.459-0.39,0.642-0.412,0.858-0.153c0.146,0.176,0.095,0.341-0.041,0.473
	C29.789,33.757,29.555,33.665,29.177,33.239z"/>
<path fill="#1D88BD" d="M35.593,33.313c-0.075,0.291-0.278,0.369-0.533,0.331c-0.229-0.034-0.395-0.169-0.341-0.419
	c0.051-0.235,0.265-0.322,0.477-0.296C35.402,32.955,35.588,33.061,35.593,33.313z"/>
<path fill="#1D88BD" d="M42.646,60.079c0.235,0.042,0.453,0.154,0.432,0.415c-0.017,0.209-0.22,0.343-0.437,0.336
	c-0.244-0.008-0.458-0.146-0.437-0.406C42.22,60.214,42.424,60.107,42.646,60.079z"/>
<path fill="#1D88BD" d="M71.292,40.997c-0.035,0.22-0.143,0.425-0.354,0.436c-0.26,0.013-0.393-0.206-0.396-0.45
	c-0.003-0.217,0.133-0.418,0.344-0.43C71.149,40.538,71.252,40.764,71.292,40.997z"/>
<path fill="#1D88BD" d="M71.292,42.726c-0.035,0.22-0.143,0.425-0.354,0.436c-0.26,0.013-0.393-0.206-0.396-0.45
	c-0.003-0.217,0.133-0.418,0.344-0.43C71.149,42.267,71.252,42.493,71.292,42.726z"/>
<path fill="#1D88BD" d="M71.292,44.485c-0.035,0.22-0.143,0.425-0.354,0.436c-0.26,0.013-0.393-0.206-0.396-0.45
	c-0.003-0.217,0.133-0.418,0.344-0.43C71.149,44.026,71.252,44.252,71.292,44.485z"/>
<path fill="#1D88BD" d="M52.035,29.709c-0.22-0.105-0.379-0.262-0.334-0.522c0.035-0.206,0.165-0.411,0.388-0.376
	c0.239,0.038,0.381,0.246,0.339,0.504C52.395,29.524,52.266,29.673,52.035,29.709z"/>
<path fill="#1D88BD" d="M46.186,46.827c-0.023,0.236-0.179,0.36-0.382,0.399c-0.257,0.05-0.465-0.092-0.511-0.329
	c-0.045-0.229,0.164-0.354,0.365-0.395C45.916,46.448,46.075,46.608,46.186,46.827z"/>
<path fill="#1D88BD" d="M34.072,29.341c-0.014,0.157-0.048,0.388-0.302,0.39c-0.303,0.002-0.332-0.256-0.329-0.487
	c0.002-0.198,0.004-0.444,0.284-0.433C34.005,28.821,34.086,29.038,34.072,29.341z"/>
<path fill="#1D88BD" d="M28.115,46.484c0.233,0.04,0.458,0.143,0.444,0.406c-0.012,0.21-0.214,0.347-0.43,0.344
	c-0.244-0.003-0.462-0.135-0.449-0.396C27.69,46.626,27.894,46.519,28.115,46.484z"/>
<path fill="#1D88BD" d="M30.029,46.484c0.233,0.04,0.458,0.143,0.444,0.406c-0.012,0.21-0.214,0.347-0.43,0.344
	c-0.244-0.003-0.462-0.135-0.449-0.396C29.604,46.626,29.808,46.519,30.029,46.484z"/>
<path fill="#1D88BD" d="M31.77,46.487c0.218,0.05,0.47,0.097,0.496,0.377c0.023,0.243-0.158,0.365-0.386,0.382
	c-0.258,0.019-0.466-0.077-0.49-0.361C31.37,46.643,31.525,46.517,31.77,46.487z"/>
<path fill="#1D88BD" d="M33.759,46.484c0.233,0.04,0.458,0.143,0.444,0.406c-0.012,0.21-0.214,0.347-0.43,0.344
	c-0.244-0.003-0.462-0.135-0.449-0.396C33.334,46.626,33.538,46.519,33.759,46.484z"/>
<path fill="#1D88BD" d="M35.673,46.484c0.233,0.04,0.458,0.143,0.444,0.406c-0.012,0.21-0.214,0.347-0.43,0.344
	c-0.244-0.003-0.462-0.135-0.449-0.396C35.248,46.626,35.452,46.519,35.673,46.484z"/>
<path fill="#1D88BD" d="M37.598,46.484c0.233,0.04,0.458,0.143,0.444,0.406c-0.012,0.21-0.214,0.347-0.43,0.344
	c-0.244-0.003-0.462-0.135-0.449-0.396C37.173,46.626,37.377,46.519,37.598,46.484z"/>
<path fill="#1D88BD" d="M70.897,64.019c0.537,0.429,0.538,0.441,0.03,0.913C70.39,64.504,70.39,64.491,70.897,64.019z"/>
<path fill="#1D88BD" d="M40.316,46.848c-0.429,0.537-0.441,0.538-0.913,0.03C39.831,46.341,39.844,46.341,40.316,46.848z"/>
<path fill="#1D88BD" d="M52.073,34.635c0.485,0.523,0.485,0.523-0.019,0.945C51.573,35.132,51.573,35.132,52.073,34.635z"/>
<path fill="#1D88BD" d="M33.745,69.854c0.253,0.03,0.311,0.213,0.327,0.424c0.019,0.247-0.038,0.471-0.319,0.507
	c-0.289,0.037-0.302-0.204-0.311-0.403C33.432,70.152,33.457,69.927,33.745,69.854z"/>
<path fill="#1D88BD" d="M70.977,59.063c-0.264-0.025-0.388-0.182-0.427-0.385c-0.05-0.257,0.092-0.465,0.329-0.511
	c0.229-0.045,0.351,0.164,0.396,0.365C71.335,58.797,71.146,58.936,70.977,59.063z"/>
<path fill="#1D88BD" d="M33.435,40.985c0.025-0.193,0.006-0.44,0.291-0.435c0.236,0.004,0.341,0.178,0.349,0.411
	c0.009,0.261-0.082,0.474-0.36,0.475C33.44,41.438,33.455,41.186,33.435,40.985z"/>
<path fill="#1D88BD" d="M33.435,27.34c0.022-0.19-0.024-0.442,0.272-0.448c0.248-0.005,0.347,0.181,0.356,0.405
	c0.009,0.222-0.068,0.417-0.311,0.449C33.453,27.786,33.454,27.548,33.435,27.34z"/>
<path fill="#1D88BD" d="M34.076,56.625c-0.021,0.224-0.056,0.458-0.316,0.45c-0.301-0.01-0.32-0.27-0.317-0.504
	c0.003-0.199,0.084-0.346,0.31-0.346C34.034,56.225,34.066,56.424,34.076,56.625z"/>
<path fill="#1D88BD" d="M34.076,58.415c-0.021,0.224-0.056,0.458-0.316,0.45c-0.301-0.01-0.32-0.27-0.317-0.504
	c0.003-0.199,0.084-0.346,0.31-0.346C34.034,58.015,34.066,58.214,34.076,58.415z"/>
<path fill="#1D88BD" d="M34.076,54.795c-0.021,0.224-0.056,0.458-0.316,0.45c-0.301-0.01-0.32-0.27-0.317-0.504
	c0.003-0.199,0.084-0.346,0.31-0.346C34.034,54.395,34.066,54.594,34.076,54.795z"/>
<path fill="#1D88BD" d="M33.435,35.125c0.022-0.199,0.007-0.451,0.284-0.446c0.28,0.005,0.365,0.22,0.355,0.479
	c-0.009,0.234-0.118,0.406-0.353,0.407C33.44,35.567,33.459,35.32,33.435,35.125z"/>
<path fill="#1D88BD" d="M34.068,33.183c-0.019,0.209-0.063,0.432-0.332,0.411c-0.257-0.021-0.293-0.249-0.293-0.46
	c0-0.183,0.021-0.382,0.271-0.373C33.965,32.77,34.047,32.955,34.068,33.183z"/>
<path fill="#1D88BD" d="M33.767,30.768c0.258,0.06,0.312,0.25,0.295,0.466c-0.018,0.229-0.141,0.403-0.386,0.381
	c-0.233-0.021-0.241-0.229-0.233-0.412C33.453,30.988,33.511,30.799,33.767,30.768z"/>
<path fill="#1D88BD" d="M33.736,42.51c0.226,0.013,0.311,0.164,0.325,0.354c0.018,0.251-0.057,0.467-0.351,0.491
	c-0.197,0.017-0.255-0.137-0.264-0.3C33.433,42.82,33.449,42.591,33.736,42.51z"/>
<path fill="#1D88BD" d="M33.736,44.362c0.226,0.013,0.311,0.164,0.325,0.354c0.018,0.251-0.057,0.467-0.351,0.491
	c-0.197,0.017-0.255-0.137-0.264-0.3C33.433,44.672,33.449,44.443,33.736,44.362z"/>
<path fill="#1D88BD" d="M33.777,39.486c-0.323-0.084-0.342-0.311-0.332-0.548c0.007-0.164,0.064-0.32,0.258-0.308
	c0.294,0.017,0.372,0.232,0.361,0.485C34.056,39.312,33.949,39.44,33.777,39.486z"/>
<path fill="#1D88BD" d="M34.071,25.288c-0.024,0.264-0.108,0.448-0.36,0.457c-0.25,0.009-0.269-0.192-0.269-0.375
	c0-0.212,0.037-0.442,0.294-0.46C34.005,24.889,34.047,25.115,34.071,25.288z"/>
<path fill="#1D88BD" d="M33.747,36.631c0.283,0.078,0.337,0.269,0.315,0.484c-0.023,0.227-0.147,0.399-0.394,0.369
	c-0.233-0.029-0.227-0.239-0.224-0.419C33.447,36.838,33.54,36.679,33.747,36.631z"/>
<path fill="#1D88BD" d="M70.919,72.422c-0.163-0.016-0.312-0.07-0.303-0.255c0.009-0.185,0.107-0.339,0.323-0.333
	c0.163,0.004,0.294,0.096,0.306,0.265C71.262,72.315,71.105,72.393,70.919,72.422z"/>
<path fill="#1D88BD" d="M75.721,60.765c-0.178-0.039-0.252-0.161-0.238-0.328c0.014-0.161,0.087-0.302,0.278-0.272
	c0.185,0.029,0.338,0.124,0.295,0.35C76.022,60.693,75.868,60.731,75.721,60.765z"/>
<path fill="#1D88BD" d="M52.366,72.151c-0.003,0.194-0.132,0.264-0.293,0.269c-0.162,0.005-0.312-0.067-0.304-0.249
	c0.008-0.183,0.098-0.346,0.324-0.33C52.275,71.852,52.325,72.003,52.366,72.151z"/>
<path fill="#1D88BD" d="M34.019,72.149c-0.042,0.173-0.156,0.262-0.324,0.26c-0.145-0.002-0.236-0.092-0.223-0.241
	c0.018-0.203,0.13-0.337,0.346-0.296C33.949,71.896,34.027,72.004,34.019,72.149z"/>
<path fill="#1D88BD" d="M52.079,52.279c0.508,0.471,0.507,0.483-0.03,0.912C51.542,52.718,51.542,52.705,52.079,52.279z"/>
<path fill="#1D88BD" d="M52.079,50.34c0.508,0.471,0.507,0.483-0.03,0.912C51.542,50.779,51.542,50.766,52.079,50.34z"/>
<path fill="#1D88BD" d="M52.079,54.212c0.508,0.471,0.507,0.483-0.03,0.912C51.542,54.651,51.542,54.638,52.079,54.212z"/>
<polyline fill="none" stroke="#1D88BD" stroke-width="3" stroke-linecap="round" stroke-linejoin="round" stroke-miterlimit="10" points="
	32.273,64.019 52.064,46.471 70.49,48.061 "/>
<polyline fill="none" stroke="#1D88BD" stroke-width="3" stroke-linecap="round" stroke-linejoin="round" stroke-miterlimit="10" points="
	33.435,50 53.198,59.063 71.246,33.665 "/>
<path fill="#1D88BD" d="M33.745,67.789c0.253,0.03,0.311,0.213,0.327,0.424c0.019,0.247-0.038,0.471-0.319,0.507
	c-0.289,0.037-0.302-0.204-0.311-0.403C33.432,68.087,33.457,67.862,33.745,67.789z"/>
</svg>
