<?xml version="1.0" encoding="utf-8"?>
<!-- Generator: Adobe Illustrator 17.0.1, SVG Export Plug-In . SVG Version: 6.00 Build 0)  -->
<!DOCTYPE svg PUBLIC "-//W3C//DTD SVG 1.1//EN" "http://www.w3.org/Graphics/SVG/1.1/DTD/svg11.dtd">
<svg version="1.1" id="Layer_1" xmlns="http://www.w3.org/2000/svg" xmlns:xlink="http://www.w3.org/1999/xlink" x="0px" y="0px"
	 width="100px" height="100px" viewBox="0 0 100 100" enable-background="new 0 0 100 100" xml:space="preserve">
<g>
	<path fill="#1D88BD" d="M37.777,79.663c-7.616,0-15.232,0-22.849,0c-1.664,0-2.173-0.52-2.175-2.22
		c-0.002-1.671,0.062-3.345-0.015-5.013c-0.113-2.435,1.036-4.15,2.875-5.562c2.026-1.557,4.316-2.662,6.524-3.907
		c2.79-1.573,5.485-3.269,7.767-5.548c0.778-0.777,0.902-2.023,0.199-2.878c-1.745-2.12-2.943-4.514-3.727-7.131
		c-0.108-0.362-0.283-0.659-0.614-0.92c-1.124-0.885-2.035-3.542-1.041-5.589c0.287-0.59,0.379-1.178,0.369-1.819
		c-0.044-2.732,0.082-5.454,0.475-8.163c0.632-4.354,3.331-7.4,7.734-8.38c3.877-0.863,7.776-0.829,11.461,0.848
		c3.033,1.381,4.693,3.931,5.246,7.166c0.475,2.777,0.64,5.594,0.477,8.404c-0.067,1.149,0.607,2.017,0.752,3.065
		c0.247,1.798-0.155,3.355-1.543,4.579c-0.205,0.181-0.277,0.369-0.352,0.609c-0.758,2.44-1.818,4.732-3.363,6.784
		c-1.219,1.619-0.959,2.966,0.581,4.285c3.117,2.669,6.714,4.556,10.266,6.529c1.77,0.983,3.478,2.067,4.821,3.627
		c0.781,0.907,1.164,1.984,1.189,3.153c0.044,2.054,0.021,4.109,0.009,6.164c-0.008,1.365-0.581,1.915-1.968,1.915
		C53.174,79.663,45.475,79.663,37.777,79.663z"/>
	<path fill="#1D88BD" d="M75.77,76.867c-3.287,0-6.574-0.017-9.861,0.013c-0.778,0.007-1.076-0.247-1.053-1.041
		c0.045-1.533,0.02-3.067,0.011-4.601c-0.013-2.242-1.124-3.945-2.732-5.362c-2.127-1.874-4.675-3.096-7.121-4.471
		c-0.282-0.159-0.695-0.257-0.703-0.617c-0.007-0.336,0.421-0.373,0.664-0.532c1.599-1.053,3.143-2.175,4.451-3.59
		c0.425-0.46,0.708-1.826,0.479-2.37c-0.126-0.299-0.378-0.276-0.621-0.278c-3.101-0.021-6.01-0.967-8.926-1.867
		c-0.279-0.086-0.852-0.155-0.363-0.673c1.369-1.451,1.929-3.272,2.356-5.144c0.606-2.656,0.961-5.356,1.348-8.05
		c0.34-2.37,0.577-4.771,1.677-6.957c1.886-3.749,4.986-5.708,9.107-6.208c3.356-0.407,6.323,0.536,8.949,2.556
		c1.543,1.187,2.528,2.825,3.234,4.645c0.8,2.061,0.954,4.24,1.308,6.386c0.574,3.487,0.889,7.029,2.135,10.378
		c0.327,0.88,0.873,1.634,1.428,2.375c0.248,0.332,0.35,0.517-0.151,0.672c-2.317,0.716-4.636,1.411-7.052,1.732
		c-0.679,0.09-1.352,0.168-2.037,0.156c-0.223-0.004-0.43,0.019-0.539,0.276c-0.254,0.601,0.037,2.123,0.541,2.588
		c1.874,1.726,3.95,3.169,6.16,4.435c2.059,1.179,4.204,2.207,6.16,3.565c1.449,1.007,2.66,2.184,2.972,4.025
		c0.045,0.268,0.076,0.541,0.077,0.812c0.007,1.698,0.008,3.396,0.002,5.095c-0.005,1.466-0.558,2.04-2.037,2.046
		C82.343,76.877,79.056,76.867,75.77,76.867z"/>
</g>
</svg>
