<?xml version="1.0" encoding="utf-8"?>
<!-- Generator: Adobe Illustrator 17.0.1, SVG Export Plug-In . SVG Version: 6.00 Build 0)  -->
<!DOCTYPE svg PUBLIC "-//W3C//DTD SVG 1.1//EN" "http://www.w3.org/Graphics/SVG/1.1/DTD/svg11.dtd">
<svg version="1.1" id="Layer_1" xmlns="http://www.w3.org/2000/svg" xmlns:xlink="http://www.w3.org/1999/xlink" x="0px" y="0px"
	 width="100px" height="100px" viewBox="0 0 100 100" enable-background="new 0 0 100 100" xml:space="preserve">
<path fill="#1D88BD" d="M59.802,25.211c-0.055-0.059-0.118-0.098-0.188-0.122c-0.311-0.153-0.597,0.035-0.708,0.309
	c-0.035,0.065,1.276,3.408-0.45,3.408c-14.827,0-28.585,5.699-30.22,20.758C26.202,68.3,40.776,76.123,49.364,76.123
	c8.589,0,13.748-5.753,13.748-12.697S58.083,51.88,51.942,51.88s-9.453,5.023-9.453,8.594s2.134,7.751,7.578,7.751
	c4.88,0,6.289-2.383,6.289-5.545c0-3.162-2.771-4.496-4.535-4.558c-2.093-0.074-4.766,1.874-3.568,3.732
	c0.538,0.833,1.774,1.559,3.204,0.983c0.735-0.296,1.05-1.129,0.402-1.419c-0.648-0.29-0.651,0.152-1.451,0.561
	c-0.702,0.359-1.912-0.959-0.755-1.97c1.498-1.309,5.011,0.062,5.011,2.499c0,2.437-2.112,3.493-4.792,3.493
	s-4.504-3.269-4.504-5.481c0-2.212,2.254-4.978,6.574-4.978c3.946,0,6.763,2.536,6.763,7.91c0,3.354-1.301,7.608-9.338,7.608
	s-15.02-8.531-11.341-20.62c0,0,1.147,0.375,1.085,1.658s0.721,0.717,1.05,0.284c1.05-1.381-0.361-4.766-0.361-4.766
	c2.092-2.764,6.716-3.644,8.099-4.097C48.29,43.955,47,46.008,47,46.65c0,0.318,0.257,0.55,0.564,0.564
	c1.507,0.069,3.695-3.319,4.046-4.014c8.232,0.11,10.71,7.659,11.989,7.336C74.787,40.143,60.697,25.815,59.802,25.211z"/>
</svg>
